<svg version="1.1" id="Layer_1" xmlns="http://www.w3.org/2000/svg" xmlns:xlink="http://www.w3.org/1999/xlink" x="0px" y="0px"
	 width="100%" viewBox="0 0 500 500" enable-background="new 0 0 500 500" xml:space="preserve">
<path fill="#000000" opacity="1.000000" stroke="none" 
	d="
M319.000000,501.000000 
	C212.666687,501.000000 106.833382,501.000000 1.000057,501.000000 
	C1.000038,334.333405 1.000038,167.666794 1.000019,1.000146 
	C167.666565,1.000098 334.333130,1.000098 500.999756,1.000049 
	C500.999847,167.666519 500.999847,334.333038 500.999939,500.999786 
	C440.500000,501.000000 380.000000,501.000000 319.000000,501.000000 
M192.092987,170.553848 
	C192.375198,170.724136 192.657394,170.894424 193.227951,171.703339 
	C196.818466,173.469086 200.408981,175.234818 204.470871,177.631012 
	C210.618500,178.987488 216.633423,180.411682 223.135452,179.103760 
	C230.587891,177.604614 237.452545,175.311722 243.696274,169.776505 
	C260.905304,154.336716 262.394562,130.652832 248.195297,112.805305 
	C242.442368,105.992821 235.210617,101.491562 226.596985,99.316170 
	C214.118179,96.164612 202.902664,98.891785 192.294922,107.197289 
	C190.504684,109.105286 188.714432,111.013290 186.296066,113.198715 
	C183.295166,119.392662 178.926926,125.310699 177.608551,131.844162 
	C175.546127,142.064850 177.095291,152.350418 184.031738,161.759384 
	C186.328842,164.197922 188.625946,166.636459 191.081741,169.559677 
	C191.365524,169.730484 191.649307,169.901276 192.092987,170.553848 
M224.912201,207.290833 
	C224.871262,206.926498 224.830322,206.562149 224.949387,205.298874 
	C224.223465,204.864029 223.499161,204.052719 222.771378,204.049606 
	C206.111511,203.978180 189.450241,203.919769 172.793121,204.145248 
	C171.533493,204.162292 169.413742,206.176926 169.209106,207.497726 
	C168.204208,213.983627 167.362091,220.535080 167.102737,227.088730 
	C166.256622,248.470093 165.086472,269.865875 165.206757,291.249573 
	C165.301605,308.114044 167.117142,324.968842 168.192383,342.211914 
	C192.365707,342.211914 215.113586,342.211914 237.834686,342.211914 
	C237.918015,340.935669 238.071228,340.411285 237.965408,339.945709 
	C234.474792,324.589386 230.563049,309.314941 227.589874,293.859802 
	C225.676254,283.912415 224.339691,273.715424 224.153885,263.604401 
	C223.812393,245.022141 224.510971,226.420792 224.912201,207.290833 
M322.039581,187.500443 
	C320.378113,184.551865 319.165161,181.207977 316.976044,178.724487 
	C308.398254,168.993118 295.883606,166.698608 285.581329,170.410736 
	C276.189453,173.794846 266.817993,184.597702 266.715912,198.230530 
	C266.594421,214.462280 284.892303,230.589615 301.563110,225.941467 
	C319.726349,220.877213 327.909515,204.366028 322.039581,187.500443 
M307.471619,329.004517 
	C302.611176,309.849030 299.895477,290.406342 300.034119,270.628479 
	C300.088593,262.860657 300.563812,255.091202 301.023651,247.332932 
	C301.219788,244.024292 299.956665,242.971634 296.707001,243.017395 
	C286.212219,243.165192 275.711487,243.192261 265.218689,242.982666 
	C262.286591,242.924088 261.299072,244.319626 261.106018,246.647781 
	C260.044128,259.456085 258.625763,272.257599 258.200043,285.090332 
	C257.619263,302.597778 257.926727,320.099640 260.835022,337.497559 
	C261.482941,341.373535 262.766815,342.055023 266.123901,342.010223 
	C276.619293,341.870117 287.117798,341.963928 297.615112,341.966461 
	C301.698395,341.967468 305.781647,341.966675 310.540131,341.966675 
	C309.543335,337.330353 308.726227,333.529633 307.471619,329.004517 
z"/>
<path fill="#FEDE5A" opacity="1.000000" stroke="none" 
	d="
M224.789383,206.197815 
	C224.830322,206.562149 224.871262,206.926498 224.507812,207.746307 
	C223.449188,211.730698 222.304642,215.247482 222.217041,218.790421 
	C221.393829,252.083420 221.631638,285.305359 230.247330,317.844238 
	C232.136368,324.978546 233.842239,332.161407 235.612030,339.240204 
	C235.055954,339.559967 234.772049,339.865417 234.486130,339.867340 
	C215.057556,339.996826 195.628052,340.036407 176.200729,340.264069 
	C172.305298,340.309753 170.381317,338.882416 169.947739,334.994019 
	C167.611725,314.044891 165.638031,293.089905 166.876083,271.960754 
	C167.992828,252.901688 168.874588,233.828781 170.013031,214.771118 
	C170.522125,206.248901 170.680618,205.523224 178.958588,205.394440 
	C194.227646,205.156906 209.511627,205.876816 224.789383,206.197815 
z"/>
<path fill="#FADC60" opacity="1.000000" stroke="none" 
	d="
M322.289886,187.823517 
	C327.909515,204.366028 319.726349,220.877213 301.563110,225.941467 
	C284.892303,230.589615 266.594421,214.462280 266.715912,198.230530 
	C266.817993,184.597702 276.189453,173.794846 285.581329,170.410736 
	C295.883606,166.698608 308.398254,168.993118 316.976044,178.724487 
	C319.165161,181.207977 320.378113,184.551865 322.289886,187.823517 
z"/>
<path fill="#D4C68A" opacity="1.000000" stroke="none" 
	d="
M224.869385,205.748352 
	C209.511627,205.876816 194.227646,205.156906 178.958588,205.394440 
	C170.680618,205.523224 170.522125,206.248901 170.013031,214.771118 
	C168.874588,233.828781 167.992828,252.901688 166.876083,271.960754 
	C165.638031,293.089905 167.611725,314.044891 169.947739,334.994019 
	C170.381317,338.882416 172.305298,340.309753 176.200729,340.264069 
	C195.628052,340.036407 215.057556,339.996826 234.486130,339.867340 
	C234.772049,339.865417 235.055954,339.559967 235.612030,339.240204 
	C233.842239,332.161407 232.136368,324.978546 230.247330,317.844238 
	C221.631638,285.305359 221.393829,252.083420 222.217041,218.790421 
	C222.304642,215.247482 223.449188,211.730698 224.439728,208.014587 
	C224.510971,226.420792 223.812393,245.022141 224.153885,263.604401 
	C224.339691,273.715424 225.676254,283.912415 227.589874,293.859802 
	C230.563049,309.314941 234.474792,324.589386 237.965408,339.945709 
	C238.071228,340.411285 237.918015,340.935669 237.834686,342.211914 
	C215.113586,342.211914 192.365707,342.211914 168.192383,342.211914 
	C167.117142,324.968842 165.301605,308.114044 165.206757,291.249573 
	C165.086472,269.865875 166.256622,248.470093 167.102737,227.088730 
	C167.362091,220.535080 168.204208,213.983627 169.209106,207.497726 
	C169.413742,206.176926 171.533493,204.162292 172.793121,204.145248 
	C189.450241,203.919769 206.111511,203.978180 222.771378,204.049606 
	C223.499161,204.052719 224.223465,204.864029 224.869385,205.748352 
z"/>
<path fill="#DACA85" opacity="1.000000" stroke="none" 
	d="
M307.690369,329.366730 
	C308.726227,333.529633 309.543335,337.330353 310.540131,341.966675 
	C305.781647,341.966675 301.698395,341.967468 297.615112,341.966461 
	C287.117798,341.963928 276.619293,341.870117 266.123901,342.010223 
	C262.766815,342.055023 261.482941,341.373535 260.835022,337.497559 
	C257.926727,320.099640 257.619263,302.597778 258.200043,285.090332 
	C258.625763,272.257599 260.044128,259.456085 261.106018,246.647781 
	C261.299072,244.319626 262.286591,242.924088 265.218689,242.982666 
	C275.711487,243.192261 286.212219,243.165192 296.707001,243.017395 
	C299.956665,242.971634 301.219788,244.024292 301.023651,247.332932 
	C300.563812,255.091202 300.088593,262.860657 300.034119,270.628479 
	C299.895477,290.406342 302.611176,309.849030 307.690369,329.366730 
M298.085632,265.504303 
	C298.134430,260.840790 297.931854,256.157318 298.300110,251.519150 
	C298.697632,246.512558 297.599335,245.030457 292.705048,245.105515 
	C284.632629,245.229340 276.558624,245.258209 268.486603,245.401047 
	C265.386078,245.455902 263.119720,246.324249 262.876617,250.192932 
	C262.023132,263.772827 260.276764,277.329834 260.112946,290.910492 
	C259.948975,304.506104 261.341980,318.116882 261.919617,331.726654 
	C262.195190,338.219604 263.740326,339.978363 270.324951,340.018463 
	C281.322540,340.085510 292.320892,340.054993 303.318787,340.016449 
	C304.725220,340.011536 306.130615,339.712769 308.436981,339.445953 
	C300.424133,315.346527 297.815826,291.110687 298.085632,265.504303 
z"/>
<path fill="#D9C987" opacity="1.000000" stroke="none" 
	d="
M248.608673,113.310463 
	C262.394562,130.652832 260.905304,154.336716 243.062073,169.897278 
	C241.994812,170.018417 241.561737,170.018784 241.270020,169.725525 
	C241.837570,168.927124 242.205109,168.354584 242.698563,167.927505 
	C256.656738,155.846664 260.864716,135.454498 248.727615,116.837875 
	C248.222610,116.063255 248.229309,114.955025 248.153290,113.831856 
	C248.308975,113.661499 248.608673,113.310463 248.608673,113.310463 
z"/>
<path fill="#D9C987" opacity="1.000000" stroke="none" 
	d="
M192.917496,106.923698 
	C202.902664,98.891785 214.118179,96.164612 226.596985,99.316170 
	C235.210617,101.491562 242.442368,105.992821 248.401978,113.057884 
	C248.608673,113.310463 248.308975,113.661499 247.818665,113.760040 
	C245.804520,112.612770 244.201187,111.451622 242.769745,110.107445 
	C233.368362,101.279167 222.151886,98.614944 209.856171,101.256775 
	C204.159988,102.480637 198.789886,105.222061 193.183411,107.187469 
	C193.094879,107.099449 192.917496,106.923698 192.917496,106.923698 
z"/>
<path fill="#D9C987" opacity="1.000000" stroke="none" 
	d="
M183.939865,161.059082 
	C177.095291,152.350418 175.546127,142.064850 177.608551,131.844162 
	C178.926926,125.310699 183.295166,119.392662 186.695496,113.145676 
	C187.094910,113.092628 187.265732,113.263855 187.171753,113.600670 
	C186.484283,115.103149 186.003677,116.344666 185.279434,117.422478 
	C179.454010,126.091904 177.717133,135.599365 179.885162,145.706497 
	C180.976608,150.794647 182.796265,155.726593 184.199905,160.811615 
	C184.113174,160.894058 183.939865,161.059082 183.939865,161.059082 
z"/>
<path fill="#D4C68A" opacity="1.000000" stroke="none" 
	d="
M241.128677,170.019150 
	C241.561737,170.018784 241.994812,170.018417 242.752625,170.023407 
	C237.452545,175.311722 230.587891,177.604614 223.135452,179.103760 
	C216.633423,180.411682 210.618500,178.987488 204.300568,177.219330 
	C204.130249,176.807632 204.271255,176.622055 204.538818,176.684357 
	C205.167511,176.812500 205.528641,176.878342 206.189209,176.953476 
	C206.688278,176.957458 206.887924,176.952164 207.522568,176.946762 
	C219.966339,179.194687 230.904877,176.318130 241.128677,170.019150 
z"/>
<path fill="#D9C987" opacity="1.000000" stroke="none" 
	d="
M204.064880,176.904099 
	C200.408981,175.234818 196.818466,173.469086 193.159943,171.288239 
	C193.091949,170.873154 193.238388,170.677048 193.597076,170.756851 
	C197.394257,172.765121 200.832764,174.693588 204.271255,176.622055 
	C204.271255,176.622055 204.130249,176.807632 204.064880,176.904099 
z"/>
<path fill="#D9C987" opacity="1.000000" stroke="none" 
	d="
M190.923050,169.074982 
	C188.625946,166.636459 186.328842,164.197922 183.985809,161.409241 
	C183.939865,161.059082 184.113174,160.894058 184.497955,160.955383 
	C187.020432,163.603485 189.158127,166.190277 191.201096,168.849609 
	C191.106354,168.922165 190.923050,169.074982 190.923050,169.074982 
z"/>
<path fill="#D9C987" opacity="1.000000" stroke="none" 
	d="
M187.009552,113.006958 
	C188.714432,111.013290 190.504684,109.105286 192.606201,107.060493 
	C192.917496,106.923698 193.094879,107.099449 193.083679,107.516190 
	C191.136887,109.709900 189.201309,111.486877 187.265732,113.263855 
	C187.265732,113.263855 187.094910,113.092628 187.009552,113.006958 
z"/>
<path fill="#D9C987" opacity="1.000000" stroke="none" 
	d="
M191.933090,170.072067 
	C191.649307,169.901276 191.365524,169.730484 191.002396,169.317322 
	C190.923050,169.074982 191.106354,168.922165 191.360474,169.011993 
	C191.828781,169.318497 192.026398,169.549347 192.138336,169.863281 
	C192.069229,169.932205 191.933090,170.072067 191.933090,170.072067 
z"/>
<path fill="#D9C987" opacity="1.000000" stroke="none" 
	d="
M193.015778,170.968933 
	C192.657394,170.894424 192.375198,170.724136 192.013031,170.312958 
	C191.933090,170.072067 192.069229,169.932205 192.316650,170.002655 
	C192.793396,170.269333 193.018173,170.470642 193.238388,170.677048 
	C193.238388,170.677048 193.091949,170.873154 193.015778,170.968933 
z"/>
<path fill="#FEDE5A" opacity="1.000000" stroke="none" 
	d="
M298.085510,266.003296 
	C297.815826,291.110687 300.424133,315.346527 308.436981,339.445953 
	C306.130615,339.712769 304.725220,340.011536 303.318787,340.016449 
	C292.320892,340.054993 281.322540,340.085510 270.324951,340.018463 
	C263.740326,339.978363 262.195190,338.219604 261.919617,331.726654 
	C261.341980,318.116882 259.948975,304.506104 260.112946,290.910492 
	C260.276764,277.329834 262.023132,263.772827 262.876617,250.192932 
	C263.119720,246.324249 265.386078,245.455902 268.486603,245.401047 
	C276.558624,245.258209 284.632629,245.229340 292.705048,245.105515 
	C297.599335,245.030457 298.697632,246.512558 298.300110,251.519150 
	C297.931854,256.157318 298.134430,260.840790 298.085510,266.003296 
z"/>
<path fill="#FEDE5A" opacity="1.000000" stroke="none" 
	d="
M193.597076,170.756851 
	C193.018173,170.470642 192.793396,170.269333 192.385742,169.933746 
	C192.026398,169.549347 191.828781,169.318497 191.455231,168.939453 
	C189.158127,166.190277 187.020432,163.603485 184.584686,160.872940 
	C182.796265,155.726593 180.976608,150.794647 179.885162,145.706497 
	C177.717133,135.599365 179.454010,126.091904 185.279434,117.422478 
	C186.003677,116.344666 186.484283,115.103149 187.171753,113.600662 
	C189.201309,111.486877 191.136887,109.709900 193.172211,107.604202 
	C198.789886,105.222061 204.159988,102.480637 209.856171,101.256775 
	C222.151886,98.614944 233.368362,101.279167 242.769745,110.107445 
	C244.201187,111.451622 245.804520,112.612770 247.662979,113.930389 
	C248.229309,114.955025 248.222610,116.063255 248.727615,116.837875 
	C260.864716,135.454498 256.656738,155.846664 242.698563,167.927505 
	C242.205109,168.354584 241.837570,168.927124 241.270020,169.725525 
	C230.904877,176.318130 219.966339,179.194687 207.388550,176.836655 
	C206.509613,176.799179 206.199692,176.871689 205.889771,176.944183 
	C205.528641,176.878342 205.167511,176.812500 204.538818,176.684357 
	C200.832764,174.693588 197.394257,172.765121 193.597076,170.756851 
z"/>
<path fill="#D9C987" opacity="1.000000" stroke="none" 
	d="
M206.189209,176.953476 
	C206.199692,176.871689 206.509613,176.799179 206.953552,176.836777 
	C206.887924,176.952164 206.688278,176.957458 206.189209,176.953476 
z"/>
</svg>